<?xml version="1.0" standalone="no"?>
<!DOCTYPE svg PUBLIC "-//W3C//DTD SVG 20010904//EN"
 "http://www.w3.org/TR/2001/REC-SVG-20010904/DTD/svg10.dtd">
<svg version="1.0" xmlns="http://www.w3.org/2000/svg"
 width="41.000000pt" height="60.000000pt" viewBox="0 0 41.000000 60.000000"
 preserveAspectRatio="xMidYMid meet">

<g transform="translate(0.000000,60.000000) scale(0.100000,-0.100000)"
fill="#fff427" stroke="none">
<path d="M145 588 c-74 -26 -130 -91 -141 -163 -9 -62 11 -119 61 -175 26 -30
45 -61 45 -74 0 -32 15 -42 85 -56 33 -6 69 -14 80 -17 11 -3 16 -2 12 3 -5 5
-41 16 -80 24 -66 15 -72 18 -75 43 -2 14 -23 48 -46 74 -59 66 -66 82 -66
152 0 52 4 65 32 102 42 54 90 79 150 79 58 0 95 -13 131 -48 43 -40 57 -75
57 -137 0 -66 -8 -83 -67 -149 -23 -26 -43 -55 -43 -63 0 -12 -9 -14 -47 -9
-51 6 -35 -6 24 -18 29 -7 33 -5 39 20 4 14 26 48 50 75 86 98 82 216 -10 297
-54 47 -126 63 -191 40z"/>
<path d="M130 91 c0 -9 151 -44 158 -37 2 3 -9 8 -24 12 -16 3 -53 12 -81 19
-29 7 -53 10 -53 6z"/>
<path d="M165 26 c61 -19 111 -28 100 -17 -10 9 -106 32 -128 30 -7 -1 6 -7
28 -13z"/>
</g>
</svg>
